<svg width="20" height="20" viewBox="0 0 20 20" fill="none" xmlns="http://www.w3.org/2000/svg">
<path d="M10.8334 5.83329H9.16669V9.16663H5.83335V10.8333H9.16669V14.1666H10.8334V10.8333H14.1667V9.16663H10.8334V5.83329ZM10 1.66663C5.40002 1.66663 1.66669 5.39996 1.66669 9.99996C1.66669 14.6 5.40002 18.3333 10 18.3333C14.6 18.3333 18.3334 14.6 18.3334 9.99996C18.3334 5.39996 14.6 1.66663 10 1.66663ZM10 16.6666C6.32502 16.6666 3.33335 13.675 3.33335 9.99996C3.33335 6.32496 6.32502 3.33329 10 3.33329C13.675 3.33329 16.6667 6.32496 16.6667 9.99996C16.6667 13.675 13.675 16.6666 10 16.6666Z" fill="#A254C0"/>
</svg>
