<svg id="icon_cart" data-name="icon/cart" xmlns="http://www.w3.org/2000/svg" width="32" height="32" viewBox="0 0 32 32">
  <g id="cart" transform="translate(0.005 1.959)">
    <path id="Shape" d="M22.982,28.848a3.055,3.055,0,0,1-1.6-1.6,2.916,2.916,0,0,1,0-2.327,3.112,3.112,0,0,1,.647-.954,2.884,2.884,0,0,1,.954-.63,3.025,3.025,0,0,1,1.164-.226,3.146,3.146,0,0,1,1.18.226,2.847,2.847,0,0,1,.97.63,3.112,3.112,0,0,1,.647.954,2.916,2.916,0,0,1,0,2.327,3.116,3.116,0,0,1-.647.954,3.057,3.057,0,0,1-.97.646,2.961,2.961,0,0,1-1.18.242A2.847,2.847,0,0,1,22.982,28.848ZM9.5,28.784a3.057,3.057,0,0,1-1.6-1.6,2.913,2.913,0,0,1,0-2.327A3.1,3.1,0,0,1,8.55,23.9a2.884,2.884,0,0,1,.954-.63,3.109,3.109,0,0,1,1.2-.226,3.025,3.025,0,0,1,1.164.226,2.887,2.887,0,0,1,.954.63,3.106,3.106,0,0,1,.646.954,2.913,2.913,0,0,1,0,2.327,3.055,3.055,0,0,1-1.6,1.6,2.852,2.852,0,0,1-1.164.242A2.93,2.93,0,0,1,9.5,28.784Zm15.483-6.61H9.6a1.91,1.91,0,0,1-1.083-.291,2.454,2.454,0,0,1-.727-.759A4.617,4.617,0,0,1,7.321,20.1a9.25,9.25,0,0,1-.275-1.034q-.032-.194-.178-.937t-.356-1.858q-.21-1.115-.469-2.489t-.517-2.764q-.614-3.265-1.39-7.273H1.713a1.309,1.309,0,0,1-.808-.242,2.1,2.1,0,0,1-.533-.582A2.235,2.235,0,0,1,.081,2.2,3.511,3.511,0,0,1,0,1.487,1.417,1.417,0,0,1,.436.42,1.629,1.629,0,0,1,1.616,0H4.881A2.33,2.33,0,0,1,5.915.194a1.757,1.757,0,0,1,.614.485,1.87,1.87,0,0,1,.323.614q.1.324.162.55a7.374,7.374,0,0,1,.129.727q.064.468.129.953.1.582.194,1.228H29.576a3.3,3.3,0,0,1,1.406.242,1.6,1.6,0,0,1,.711.6,1.358,1.358,0,0,1,.194.76,2.522,2.522,0,0,1-.113.695q-.1.291-.42,1.2t-.695,1.988q-.372,1.083-.743,2.149t-.6,1.681a3.723,3.723,0,0,1-1.051,1.794,2.441,2.441,0,0,1-1.568.5H9.729l.453,2.909H26.5q1.552,0,1.552,1.325a1.989,1.989,0,0,1-.307,1.115,1.349,1.349,0,0,1-1.212.469Z" transform="translate(0 0)" fill="#fff"/>
  </g>
</svg>
