<svg width="27" height="22" viewBox="0 0 27 22" fill="none" xmlns="http://www.w3.org/2000/svg">
<path d="M21.9375 3.20837L20.25 1.83337L18.5625 3.20837L16.875 1.83337L15.1875 3.20837L13.5 1.83337L11.8125 3.20837L10.125 1.83337L8.4375 3.20837L6.75 1.83337L5.0625 3.20837L3.375 1.83337V20.1667L5.0625 18.7917L6.75 20.1667L8.4375 18.7917L10.125 20.1667L11.8125 18.7917L13.5 20.1667L15.1875 18.7917L16.875 20.1667L18.5625 18.7917L20.25 20.1667L21.9375 18.7917L23.625 20.1667V1.83337L21.9375 3.20837ZM21.375 17.4992H5.625V4.50087H21.375V17.4992ZM6.75 13.75H20.25V15.5834H6.75V13.75ZM6.75 10.0834H20.25V11.9167H6.75V10.0834ZM6.75 6.41671H20.25V8.25004H6.75V6.41671Z" fill="black" fill-opacity="0.54"/>
</svg>
