<svg width="150" height="150" viewBox="0 0 150 150" fill="none" xmlns="http://www.w3.org/2000/svg">
<circle cx="75" cy="75" r="75" fill="#EFEFEF"/>
<path d="M63.9697 111.765H86.0285C104.411 111.765 111.764 104.412 111.764 86.0292V63.9704C111.764 45.588 104.411 38.2351 86.0285 38.2351H63.9697C45.5873 38.2351 38.2344 45.588 38.2344 63.9704V86.0292C38.2344 104.412 45.5873 111.765 63.9697 111.765Z" stroke="#3B3B3B" stroke-width="1.5" stroke-linecap="round" stroke-linejoin="round"/>
<path d="M63.9701 67.647C68.031 67.647 71.3231 64.355 71.3231 60.2941C71.3231 56.2332 68.031 52.9412 63.9701 52.9412C59.9092 52.9412 56.6172 56.2332 56.6172 60.2941C56.6172 64.355 59.9092 67.647 63.9701 67.647Z" stroke="#3B3B3B" stroke-width="1.5" stroke-linecap="round" stroke-linejoin="round"/>
<path d="M40.6992 100.552L58.8242 88.383C61.7286 86.4345 65.9198 86.6551 68.5301 88.8977L69.7433 89.9639C72.611 92.4271 77.2433 92.4271 80.111 89.9639L95.4051 76.8389C98.2727 74.3756 102.905 74.3756 105.773 76.8389L111.765 81.9859" stroke="#3B3B3B" stroke-width="1.5" stroke-linecap="round" stroke-linejoin="round"/>
</svg>
