<svg width="225" height="46" viewBox="0 0 225 46" fill="none" xmlns="http://www.w3.org/2000/svg">
<path d="M41 33.2615H44.9304V23.8662H53.4149V20.2147H44.9304V16.0545H54.8016V12.4031H41V33.2615Z" fill="#7A6A56"/>
<path d="M58.9043 33.2615H73.0998V29.6182H62.8429V23.7103H73.0998V20.0588H62.8429V16.0545H73.0998V12.4031H58.9043V33.2615Z" fill="#7A6A56"/>
<path d="M88.6908 21.3635C87.9687 21.183 87.0497 20.9942 86.0158 20.8137C84.9819 20.6332 84.2106 20.4937 83.6691 20.3788C82.9786 20.2944 82.3281 20.0091 81.7982 19.5583C81.466 19.147 81.3018 18.6251 81.3387 18.0977C81.345 17.7629 81.4383 17.4356 81.6095 17.1478C81.7807 16.86 82.0239 16.6218 82.3151 16.4566C83.2071 15.9134 84.2427 15.653 85.2855 15.7099C86.4748 15.7104 87.6559 15.9073 88.7811 16.2925C89.768 16.6016 90.689 17.0913 91.4971 17.7367L91.6858 17.9008H92.7936V13.716L92.3915 13.5437C90.1534 12.5899 87.743 12.1067 85.3102 12.1241C83.2873 12.0513 81.2971 12.6484 79.6484 13.8226C79.0056 14.3013 78.4689 14.9077 78.0719 15.6038C77.6749 16.2999 77.4261 17.0706 77.3414 17.8675C77.2566 18.6643 77.3376 19.4701 77.5793 20.2342C77.821 20.9982 78.2181 21.704 78.7458 22.3071C79.9111 23.3846 81.3761 24.0827 82.947 24.3093C83.7675 24.4898 84.5881 24.6375 85.4086 24.7524C86.103 24.8498 86.7908 24.9896 87.4682 25.1709C88.0744 25.3052 88.6381 25.5871 89.1093 25.9914C89.4323 26.3935 89.5854 26.9058 89.536 27.4192C89.5439 27.7932 89.4515 28.1625 89.2682 28.4887C89.0849 28.8148 88.8175 29.0859 88.4939 29.2736C87.4711 29.871 86.296 30.1562 85.1132 30.0942C83.943 30.0731 82.7842 29.8597 81.6833 29.4623C80.5137 29.0668 79.4263 28.4606 78.475 27.6735L78.2863 27.5258H77.2031V31.8829L77.6052 32.0553C78.7462 32.5679 79.9331 32.9718 81.15 33.2615C82.4454 33.5498 83.7698 33.6874 85.0968 33.6717C86.3085 33.6984 87.5166 33.5294 88.6744 33.1712C89.6337 32.852 90.5305 32.369 91.3248 31.7435C92.026 31.1688 92.5872 30.442 92.9659 29.6182C93.3778 28.815 93.5995 27.9278 93.6141 27.0253C93.6882 25.6629 93.2258 24.3256 92.3259 23.3C91.3202 22.3258 90.0604 21.6546 88.6908 21.3635Z" fill="#7A6A56"/>
<path d="M110.583 12H106.645V32.8584H120.331V29.2151H110.583V12Z" fill="#7A6A56"/>
<path d="M122.793 15.3396H125.353V29.5269H122.793V32.8584H131.844V29.5269H129.292V15.3396H131.844V12H122.793V15.3396Z" fill="#7A6A56"/>
<path d="M141.903 12L134.305 32.8584H138.407L140.319 27.4181H147.811L149.723 32.8584H153.924L146.334 12H141.903ZM141.55 23.8487L144.012 16.9315L146.473 23.8487H141.55Z" fill="#7A6A56"/>
<path d="M156.387 15.3396H158.947V29.5269H156.387V32.8584H165.437V29.5269H162.885V15.3396H165.437V12H156.387V15.3396Z" fill="#7A6A56"/>
<path d="M179.386 21.2453C178.656 21.0566 177.745 20.8761 176.711 20.6956C175.677 20.515 174.906 20.3756 174.364 20.2607C173.674 20.1762 173.023 19.8909 172.494 19.4401C172.164 19.0276 172.003 18.5059 172.042 17.9795C172.047 17.6454 172.139 17.3182 172.308 17.0304C172.478 16.7426 172.72 16.5041 173.01 16.3384C173.903 15.7962 174.938 15.5359 175.981 15.5917C177.173 15.593 178.356 15.7898 179.485 16.1743C180.469 16.4835 181.387 16.9732 182.192 17.6185L182.381 17.7826H183.489V13.5978L183.087 13.4255C180.849 12.4718 178.438 11.9886 176.005 12.0059C173.983 11.9332 171.992 12.5302 170.344 13.7045C169.701 14.1831 169.164 14.7895 168.767 15.4856C168.37 16.1817 168.121 16.9524 168.037 17.7493C167.952 18.5462 168.033 19.352 168.275 20.116C168.516 20.88 168.913 21.5858 169.441 22.189C170.608 23.2647 172.072 23.9626 173.642 24.1911C174.463 24.3634 175.324 24.5111 176.104 24.6342C176.796 24.7316 177.481 24.8713 178.155 25.0527C178.763 25.1834 179.327 25.4657 179.796 25.8732C179.958 26.0715 180.079 26.2996 180.152 26.5446C180.225 26.7896 180.249 27.0466 180.223 27.301C180.231 27.675 180.139 28.0444 179.955 28.3705C179.772 28.6967 179.505 28.9677 179.181 29.1554C178.158 29.7528 176.983 30.038 175.8 29.976C174.63 29.955 173.471 29.7415 172.37 29.3442C171.201 28.9487 170.113 28.3424 169.162 27.5554L168.973 27.4077H167.898V31.7648L168.292 31.9371C169.436 32.4498 170.626 32.8537 171.845 33.1433C173.141 33.4328 174.465 33.5705 175.792 33.5536C177.004 33.5795 178.212 33.4105 179.37 33.053C180.328 32.7321 181.225 32.2492 182.02 31.6253C182.722 31.0512 183.283 30.3243 183.661 29.5001C184.052 28.7119 184.257 27.8445 184.26 26.9646C184.333 25.6037 183.874 24.2679 182.98 23.2393C181.992 22.2522 180.747 21.5615 179.386 21.2453Z" fill="#7A6A56"/>
<path d="M203.563 14.8648C202.707 13.9381 201.656 13.2123 200.486 12.7396C199.208 12.2319 197.841 11.9809 196.466 12.0011C195.105 11.9884 193.754 12.2363 192.486 12.7314C191.293 13.19 190.224 13.9238 189.368 14.8731C188.477 15.8837 187.807 17.0685 187.399 18.3522C186.505 21.2945 186.505 24.4359 187.399 27.3782C187.807 28.641 188.472 29.8058 189.351 30.7999C190.213 31.7417 191.276 32.4767 192.461 32.9498C195.04 33.918 197.883 33.918 200.462 32.9498C201.642 32.4729 202.7 31.7351 203.555 30.7917C204.437 29.8025 205.102 28.6398 205.508 27.3782C205.987 25.9141 206.22 24.3808 206.197 22.8406C206.217 21.3072 205.99 19.7806 205.525 18.3194C205.117 17.0426 204.446 15.8657 203.555 14.8648H203.563ZM202.152 22.8406C202.152 25.2284 201.627 27.0582 200.585 28.289C200.058 28.8559 199.42 29.3081 198.71 29.6173C198.001 29.9265 197.235 30.086 196.462 30.086C195.688 30.086 194.922 29.9265 194.213 29.6173C193.503 29.3081 192.865 28.8559 192.338 28.289C191.296 27.0582 190.771 25.2284 190.771 22.8406C190.771 20.4528 191.288 18.6476 192.314 17.4003C192.84 16.8258 193.481 16.367 194.194 16.0532C194.907 15.7393 195.678 15.5772 196.457 15.5772C197.237 15.5772 198.008 15.7393 198.721 16.0532C199.434 16.367 200.075 16.8258 200.601 17.4003C201.635 18.6476 202.152 20.4774 202.152 22.8406Z" fill="#7A6A56"/>
<path d="M221.126 12V25.9083L213.758 12H208.662V32.8584H212.428V17.432L220.609 32.8584H224.893V12H221.126Z" fill="#7A6A56"/>
<path d="M0.0629594 34.5399C0.393113 37.1368 1.61391 39.5387 3.51715 41.336C6.23784 43.9332 9.37768 45.6846 13.1986 45.9803C14.1539 46.052 15.1138 45.9276 16.0193 45.6149C16.9247 45.3021 17.7567 44.8075 18.4641 44.1615C18.5744 44.085 18.6632 43.9816 18.7222 43.8611C18.7811 43.7405 18.8082 43.6069 18.8009 43.4729C18.7757 43.1349 18.8386 42.7962 18.9836 42.4898C19.1286 42.1835 19.3506 41.92 19.628 41.7252C19.711 41.6696 19.7815 41.5973 19.835 41.5129C19.8885 41.4284 19.9238 41.3338 19.9386 41.235C20.3128 38.518 17.4649 35.1761 14.4373 35.9321C13.7807 36.099 13.1801 36.4374 12.6971 36.9126L12.5662 37.051C12.5524 37.0658 12.5359 37.0777 12.5175 37.086C12.4992 37.0944 12.4793 37.099 12.4592 37.0997C12.439 37.1004 12.4189 37.0971 12.4 37.0901C12.3812 37.083 12.3638 37.0723 12.3491 37.0585C12.3344 37.0448 12.3225 37.0282 12.3141 37.0099C12.3058 36.9915 12.3011 36.9717 12.3004 36.9515C12.2997 36.9314 12.303 36.9113 12.3101 36.8924C12.3171 36.8735 12.3279 36.8562 12.3416 36.8415C12.4416 36.7378 12.5563 36.6495 12.6822 36.5795C13.4306 36.1603 13.4606 35.6364 13.1387 34.9029C12.7233 33.9636 12.6971 33.6081 11.9412 32.8484C11.732 32.6859 11.469 32.6087 11.2051 32.6323C10.9413 32.6559 10.6962 32.7786 10.5191 32.9756C9.80805 33.8214 9.5386 34.031 9.15688 35.0788C8.50945 36.8864 8.89117 38.2186 10.448 39.6707C10.9757 40.1609 11.6343 40.3705 12.2406 40.756C12.6148 40.988 12.7346 40.7073 12.7608 40.247C12.8543 38.6078 13.8236 37.7845 15.474 37.822C16.9709 37.8519 18.6737 39.9925 18.2695 41.4296C18.0974 42.0546 17.4686 42.2903 16.8362 41.9797C16.7256 41.9274 16.6224 41.8607 16.5293 41.7814C16.0204 41.3734 15.5226 40.9356 14.7779 41.2949C14.7611 41.3027 14.7427 41.3065 14.7241 41.3057C14.7056 41.305 14.6875 41.2998 14.6714 41.2907C14.6552 41.2815 14.6415 41.2686 14.6314 41.2531C14.6213 41.2375 14.6151 41.2198 14.6132 41.2013C14.6123 41.1781 14.6182 41.1551 14.6302 41.1351C14.6422 41.1152 14.6597 41.0992 14.6806 41.089C15.2644 40.8271 15.8445 40.5576 16.4358 40.3144C16.6852 40.2276 16.9464 40.1796 17.2104 40.1722C17.682 40.1722 17.5547 39.9326 17.3227 39.5659C16.7202 38.6116 15.4178 38.1064 14.4299 38.4881C13.4419 38.8698 12.9329 39.9139 13.1013 41.1077C13.1275 41.2836 13.2323 41.482 13.0527 41.6055C12.873 41.729 12.5063 41.5755 12.3454 41.5007C10.7885 40.7522 9.35148 39.9439 8.58055 38.2935C8.42852 38.0541 8.19431 37.8784 7.9219 37.7995C6.99005 37.4253 6.27901 37.051 5.89729 36.078L5.58667 35.2135C5.58147 35.1998 5.57386 35.1872 5.56422 35.1761C5.45569 35.0339 4.70348 34.0122 4.72593 33.2488C4.72652 33.2209 4.7187 33.1935 4.70348 33.1702C4.55752 32.9532 3.77537 31.7294 3.77163 30.689C3.74169 30.2886 3.98869 30.2587 4.22446 30.4196C5.12636 31.0483 6.17796 31.168 7.21834 31.3439C7.40176 31.3659 7.58739 31.3283 7.74778 31.2366C7.90818 31.145 8.03483 31.0042 8.10902 30.835C8.16878 30.738 8.23374 30.6443 8.30362 30.5543C8.30362 30.5543 8.68908 29.9406 5.76256 29.2557C5.07727 29.0476 4.42838 28.7345 3.83899 28.3276C3.50218 28.0844 2.84353 27.5267 2.85475 27.886C2.87628 28.3144 2.94148 28.7395 3.04936 29.1547C3.04936 30.0266 1.87052 28.859 1.96033 27.3958C1.96033 27.1637 1.89671 26.0261 1.73579 25.8539C0.545723 24.574 0.130322 30.3148 0.100383 30.4832C0.100383 30.4832 -0.0979618 33.4771 0.0629594 34.5399Z" fill="#7A6A56"/>
<path d="M3.24381 11.6515C3.24381 11.6515 2.66375 9.91135 2.49534 9.0319C2.44608 8.74937 2.36185 8.47406 2.24461 8.21232C2.23217 8.19054 2.2142 8.17244 2.19251 8.15985C2.17082 8.14726 2.14619 8.14062 2.12111 8.14062C2.09603 8.14062 2.0714 8.14726 2.04971 8.15985C2.02802 8.17244 2.01005 8.19054 1.99761 8.21232C1.62338 8.91214 0.50067 11.4569 2.32694 15.3228C2.33526 15.3403 2.33958 15.3595 2.33958 15.3789C2.33958 15.3983 2.33526 15.4175 2.32694 15.4351C1.90755 16.5096 1.90755 17.7025 2.32694 18.777C2.32694 18.777 2.32694 18.777 2.32694 18.777C2.50979 19.204 2.76277 19.5973 3.07541 19.9409C4.11578 20.9588 5.04763 22.0815 6.20027 22.9535C7.18077 23.7019 8.22863 24.3419 9.24655 25.0305C9.3214 25.0791 9.40747 25.1951 9.53471 25.0604C9.64565 24.8838 9.6893 24.6731 9.65769 24.467C9.62608 24.2608 9.52132 24.073 9.36256 23.9377C8.23121 23.1755 7.17821 22.303 6.21899 21.333C5.96451 21.0636 5.72125 20.7904 5.49297 20.4985C5.38444 20.36 5.60898 19.9147 5.72874 20.0494C5.92334 20.2739 6.10297 20.4985 6.32751 20.7155C7.32973 21.7485 8.44011 22.6706 9.6395 23.4662C9.75177 23.5447 9.89398 23.7468 10.0774 23.5447C10.2607 23.3427 10.1485 23.1705 10.025 22.9946C9.08563 21.5987 8.01532 20.3076 6.98617 18.9828C6.98617 18.9828 4.36652 15.3789 3.24381 11.6515" fill="#7A6A56"/>
<path d="M8.76494 34.1918C9.17285 33.2786 9.99243 31.5721 10.6137 30.8573C11.0141 30.397 11.5305 29.6373 11.9721 29.2332C13.6749 26.6135 13.8845 24.8808 12.6495 22.8C12.3841 22.4297 12.0887 22.0817 11.7663 21.7597C11.0515 20.9775 10.7708 20.0943 10.0149 19.3047C9.95699 19.379 9.91989 19.4674 9.9074 19.5608C9.89491 19.6541 9.90746 19.7492 9.94378 19.8361C10.2207 21.2619 10.5126 22.5493 11.5567 23.5785C11.8374 23.8554 11.6391 24.0201 11.3846 24.3569C11.066 24.7543 10.8524 25.2255 10.7634 25.727C10.6745 26.2286 10.7131 26.7445 10.8756 27.2272C10.9767 27.5416 10.8756 27.6913 10.6473 27.8934C9.32629 29.1471 7.89671 31.4823 8.23352 33.3497C8.23352 33.3497 8.18861 37.2231 8.77616 34.1918" fill="#7A6A56"/>
<path d="M24.6994 26.782C24.2555 27.385 23.9547 28.0813 23.8199 28.8178C23.7167 29.2932 23.6541 29.7764 23.6328 30.2624C23.6328 30.5917 23.4943 30.7115 23.18 30.6591C22.0984 30.4794 21.1815 31.2766 20.8036 32.3244C20.6913 32.6388 20.6576 32.8334 21.073 32.8596C21.2414 32.8596 21.4473 32.9082 21.4061 33.1477C21.3649 33.3872 21.1516 33.2787 20.9869 33.2375C19.2093 32.7959 18.0642 33.8251 17.4916 35.1611C17.3831 35.4231 17.5365 35.4942 17.6899 35.6102C17.8434 35.7262 17.9893 35.8198 18.1877 35.6476C19.2468 34.7307 19.5873 34.5249 20.9233 34.6372C21.6718 34.7045 23.9846 33.0355 24.4075 32.4666C25.0736 31.5834 24.8041 31.9352 25.0736 31.1156C25.3692 29.6636 25.1447 28.496 25.1634 26.9392C25.1637 26.885 25.1469 26.8321 25.1154 26.7879C25.0839 26.7438 25.0394 26.7107 24.988 26.6933C24.9367 26.6759 24.8812 26.6752 24.8294 26.6911C24.7776 26.707 24.7321 26.7388 24.6994 26.782" fill="#7A6A56"/>
<path d="M26.8098 18.9716C27.0643 17.6954 28.3741 15.4126 29.1226 14.3535C29.6191 13.6572 30.1805 13.0093 30.7991 12.4187C30.813 12.4059 30.8221 12.3888 30.8248 12.3701C30.8275 12.3514 30.8237 12.3324 30.8141 12.3161C30.8044 12.2999 30.7895 12.2875 30.7718 12.281C30.7541 12.2744 30.7347 12.2742 30.7168 12.2803C30.2627 12.4147 29.8367 12.6302 29.4594 12.9165C27.5882 14.2113 26.4019 16.0189 25.6235 18.1558C24.7416 20.4714 24.3763 22.9518 24.5532 25.4234C24.5566 25.4696 24.5742 25.5137 24.6036 25.5495C24.633 25.5853 24.6728 25.6111 24.7175 25.6234C24.7622 25.6357 24.8096 25.6339 24.8532 25.6182C24.8968 25.6025 24.9345 25.5737 24.9611 25.5357C24.9611 25.5357 25.5037 25.5357 26.8098 18.9903" fill="#7A6A56"/>
<path d="M2.59619 20.4647C2.5219 20.378 2.42503 20.3136 2.31635 20.2787C2.20766 20.2437 2.09142 20.2396 1.98052 20.2667C1.86963 20.2939 1.76843 20.3512 1.68817 20.4324C1.60791 20.5136 1.55174 20.6155 1.52588 20.7267C1.46012 20.9718 1.46012 21.23 1.52588 21.4751C1.65868 22.1834 2.03135 22.8244 2.58122 23.2902C3.87268 24.5205 5.33786 25.5544 6.92984 26.3589C7.69699 26.7294 8.48698 27.0507 9.295 27.3207C9.58691 27.4255 9.69918 27.3731 9.70292 27.0213C9.72549 26.7167 9.64671 26.4132 9.47885 26.158C9.31099 25.9028 9.06347 25.7103 8.77482 25.6104C6.96749 24.6853 5.33009 23.4604 3.93221 21.9878L3.90227 21.9542L2.59619 20.4647Z" fill="#7A6A56"/>
<path d="M22.5393 20.8617C22.4794 21.1237 22.427 21.3932 22.3934 21.6626C22.1316 23.7978 22.1103 25.9557 22.3297 28.0957C22.3597 28.3764 22.3709 28.6346 22.7975 28.6795C23.2242 28.7244 23.299 28.5822 23.3888 28.2117C23.6545 27.089 23.5385 26.0037 23.4861 24.8848C23.3512 22.1372 23.8854 19.3979 25.0429 16.9023C25.1589 16.6404 25.5556 16.3335 25.0878 16.0603C24.6201 15.7871 24.3057 16.0191 24.025 16.3896C23.4824 17.1044 23.2765 17.9614 23.0445 18.7922C22.8387 19.5145 22.6703 20.248 22.5393 20.8617" fill="#7A6A56"/>
<path d="M21.7231 9.04699C18.9733 9.9533 16.3823 11.2842 14.0438 12.9914C12.9699 13.7636 11.9404 14.5957 10.9601 15.4838C10.8051 15.6076 10.677 15.7617 10.5837 15.9368C10.4904 16.1118 10.4338 16.3041 10.4175 16.5018C10.3626 17.149 10.3526 17.7992 10.3876 18.4478C10.3876 18.56 10.3876 18.6873 10.5223 18.721C10.657 18.7546 10.6982 18.6199 10.7543 18.5301C13.4713 14.0393 17.8199 11.6591 22.3556 9.48858C22.9993 9.17797 23.6617 8.90478 24.3166 8.61287C24.3166 8.61287 24.8854 8.21244 21.7381 9.04699" fill="#7A6A56"/>
<path d="M21.7051 19.623C21.7164 19.5756 21.7124 19.5258 21.6939 19.4808C21.6753 19.4357 21.643 19.3977 21.6016 19.372C21.5602 19.3463 21.5118 19.3343 21.4632 19.3377C21.4146 19.3411 21.3683 19.3597 21.3308 19.3909C20.8329 19.7218 20.4632 20.2131 20.283 20.7831C20.0023 21.5952 20.1445 22.4297 20.0809 23.2493C19.9087 25.461 20.006 27.6466 20.7508 29.7572C20.8256 29.9743 20.7508 30.3635 21.125 30.3635C21.4281 30.3635 21.9708 29.6562 21.8997 29.3793C21.72 28.6532 21.6564 27.9085 21.5254 27.175C21.0951 24.6452 21.2784 22.1341 21.6751 19.623" fill="#7A6A56"/>
<path d="M2.56895 25.8239C2.6008 25.9831 2.65234 26.1377 2.72238 26.2842L2.76729 26.374C2.87583 26.6008 3.02269 26.8071 3.20141 26.984C4.52994 28.2751 6.27388 28.7541 7.99162 29.2893C8.36585 29.4128 8.49683 29.1433 8.66898 28.9151C9.26776 28.1666 9.2715 28.1666 8.35088 27.8747C6.47971 27.3096 5.09878 26.3777 3.5719 25.2026C3.39601 25.0717 3.04048 24.6413 2.77478 24.8284C2.77478 24.8284 2.40054 25.0455 2.56895 25.8052" fill="#7A6A56"/>
<path d="M17.0191 32.2345C16.4931 30.7698 16.364 29.192 16.6448 27.6613C16.6722 27.556 16.7222 27.4579 16.7914 27.3739C16.8605 27.2898 16.9472 27.2219 17.0453 27.1748C17.4981 26.954 17.5505 27.0288 17.5842 27.6089C17.6689 29.2333 17.9697 30.8392 18.4786 32.3841C18.4786 32.3841 18.793 33.1326 18.1044 33.0952C17.8619 33.0705 17.6317 32.9761 17.4418 32.8233C17.2518 32.6705 17.1102 32.466 17.034 32.2345" fill="#7A6A56"/>
<path d="M19.2991 31.995C19.2991 31.2091 18.8164 30.498 18.6742 29.7234C18.3184 28.1066 18.1551 26.4535 18.1877 24.7984C18.1975 24.529 18.2532 24.2632 18.3523 24.0125C18.3978 23.9083 18.4784 23.8234 18.58 23.7724C18.6816 23.7214 18.7978 23.7076 18.9086 23.7334C19.0193 23.7592 19.1175 23.8229 19.1861 23.9136C19.2547 24.0042 19.2894 24.116 19.2842 24.2296C19.1384 25.968 19.3499 27.7179 19.9054 29.3716C20.0801 29.779 20.1662 30.219 20.1578 30.6623C20.1494 31.1056 20.0468 31.542 19.8568 31.9426L19.8044 32.0249C19.6921 32.1746 19.3104 32.6274 19.2991 31.9837" fill="#7A6A56"/>
<path d="M16.0505 30.5544C15.5079 30.996 15.4817 31.6135 15.5229 32.2272C15.6262 33.1453 15.9057 34.0348 16.3462 34.8469C16.451 35.0751 16.5146 35.0078 16.6306 34.8469C16.8094 34.6512 16.9221 34.4043 16.953 34.1411C16.9839 33.8779 16.9314 33.6116 16.8027 33.3799C16.4996 32.6982 16.3269 31.9658 16.2938 31.2205C16.2882 31.1458 16.2882 31.0707 16.2938 30.996C16.2938 30.8163 16.2713 30.4459 16.058 30.5619" fill="#7A6A56"/>
<path d="M4.81535 32.1487C4.6746 31.9061 4.59019 31.6349 4.56836 31.3553C4.56836 31.157 4.59456 30.9811 4.86775 31.142C5.60205 31.5357 6.41868 31.751 7.25163 31.7707C7.62586 31.7707 7.682 31.9653 7.5847 32.2797C7.46869 32.6096 7.42529 32.9606 7.45746 33.3088C7.52108 33.7092 7.33396 33.7167 7.03831 33.6419C7.03831 33.6419 5.29063 33.1853 4.81535 32.1449" fill="#7A6A56"/>
<path d="M14.9099 32.1036C14.8974 32.0335 14.8624 31.9693 14.8103 31.9207C14.7582 31.8721 14.6917 31.8417 14.6208 31.8342C14.55 31.8266 14.4786 31.8422 14.4173 31.8786C14.3561 31.915 14.3083 31.9703 14.2812 32.0362C14.2387 32.1572 14.2111 32.2829 14.1989 32.4105C14.0877 33.3016 14.2441 34.2056 14.648 35.0077C14.7602 35.221 15.7707 35.5017 15.9353 35.3819C15.9563 35.367 15.9742 35.3481 15.9878 35.3263C16.0015 35.3044 16.0107 35.2801 16.0149 35.2547C16.019 35.2293 16.0181 35.2033 16.0122 35.1782C16.0062 35.1532 15.9954 35.1295 15.9802 35.1087C15.4693 34.1728 15.1082 33.1626 14.9099 32.1148" fill="#7A6A56"/>
<path d="M5.75966 34.2069C5.79003 34.4306 5.87392 34.6437 6.00422 34.8281C6.13452 35.0125 6.30738 35.1627 6.50813 35.266C6.7243 35.387 6.96203 35.4645 7.20795 35.4943C7.46617 35.4943 7.67949 35.745 7.84415 35.3857C8.00881 35.0265 7.57096 34.4764 7.24163 34.3641C6.85239 34.2444 6.47008 34.1032 6.09647 33.9412C5.7896 33.799 5.72223 33.915 5.75592 34.2069" fill="#7A6A56"/>
<path d="M19.5624 44.008C19.586 44.0613 19.6279 44.1044 19.6805 44.1295C19.7332 44.1545 19.7931 44.1598 19.8493 44.1444C19.9055 44.129 19.9543 44.0939 19.9868 44.0455C20.0194 43.9971 20.0334 43.9387 20.0265 43.8808C19.997 43.6746 20.0269 43.4643 20.1126 43.2745C20.2248 43.0545 20.3795 42.8589 20.5677 42.699C20.7559 42.539 20.9738 42.4179 21.2091 42.3427C21.3991 42.2706 21.596 42.2179 21.7966 42.1855C21.8508 42.1736 21.8994 42.1436 21.9342 42.1004C21.9689 42.0572 21.9879 42.0033 21.9879 41.9478C21.9879 41.8924 21.9689 41.8385 21.9342 41.7953C21.8994 41.7521 21.8508 41.7221 21.7966 41.7102C20.8685 41.4894 19.9928 41.83 19.6972 42.3015C19.5289 42.5496 19.4265 42.8364 19.3997 43.1349C19.3728 43.4334 19.4224 43.7339 19.5437 44.008" fill="#7A6A56"/>
<path d="M13.2686 33.0579C13.1948 33.2014 13.1563 33.3605 13.1562 33.5219C13.1562 33.6833 13.1948 33.8424 13.2686 33.986C13.2979 34.0406 13.3241 34.0968 13.3472 34.1544C13.4929 34.4971 13.6178 34.8483 13.7215 35.206C13.7664 35.3669 13.8188 35.5353 14.0733 35.4455C14.3277 35.3557 14.3539 35.2359 14.2641 35.0226C14.0261 34.438 13.8846 33.8187 13.845 33.1888C13.845 33.0616 13.8974 32.8408 13.6915 32.8146C13.6054 32.8058 13.5188 32.825 13.4446 32.8696C13.3704 32.9141 13.3126 32.9815 13.2799 33.0616V33.0616" fill="#7A6A56"/>
<path d="M7.97096 37.2344C7.98757 37.2415 8.00575 37.2443 8.02373 37.2423C8.04172 37.2404 8.05889 37.2338 8.07359 37.2233C8.08828 37.2127 8.09999 37.1986 8.10758 37.1821C8.11518 37.1657 8.11839 37.1476 8.11691 37.1296C8.072 36.1715 8.02335 36.1641 7.06905 35.9582C6.85199 35.9096 6.64242 35.846 6.42536 35.7823C6.40658 35.7768 6.38663 35.7767 6.36777 35.7819C6.34891 35.7871 6.33189 35.7975 6.31864 35.812C6.3054 35.8264 6.29646 35.8442 6.29283 35.8634C6.2892 35.8827 6.29104 35.9026 6.29812 35.9208C6.5077 36.4485 7.0466 36.8639 7.97096 37.2344" fill="#7A6A56"/>
<path d="M16.5173 40.8381C16.461 40.8543 16.4106 40.8861 16.3718 40.93C16.3331 40.9739 16.3077 41.0279 16.2986 41.0857C16.2896 41.1435 16.2972 41.2028 16.3207 41.2564C16.3442 41.31 16.3826 41.3557 16.4312 41.3883C16.6296 41.5192 16.8055 41.6427 17.0113 41.7625C17.2171 41.8823 17.3855 41.8411 17.3631 41.5454C17.3631 41.5043 17.3631 41.4631 17.3631 41.4219C17.4117 40.6099 17.3631 40.5874 16.5285 40.8456" fill="#7A6A56"/>
<path d="M8.72323 19.2449C8.72323 19.2449 3.3043 6.29259 4.7526 1.56226C6.20089 -3.16807 1.2984 3.74405 3.64486 10.3007C5.99131 16.8573 9.35569 20.9589 8.72323 19.2449Z" fill="#7A6A56"/>
<path d="M16.3455 4.6722C14.0948 6.4939 12.1448 8.65853 10.5673 11.0866C9.83791 12.1899 9.17073 13.3331 8.56886 14.5108C8.46732 14.6815 8.40196 14.8713 8.37686 15.0683C8.35175 15.2653 8.36742 15.4653 8.42291 15.656C8.60287 16.28 8.82416 16.8914 9.08531 17.486C9.13022 17.5871 9.16764 17.7106 9.30985 17.6918C9.45206 17.6731 9.43709 17.5347 9.4558 17.4299C10.4026 12.2767 13.6248 8.50063 17.0752 4.8668C17.5692 4.35036 18.0931 3.85637 18.6021 3.35115C18.6021 3.35115 18.9763 2.77483 16.3567 4.67594" fill="#7A6A56"/>
</svg>
