<svg width="22" height="21" viewBox="0 0 22 21" fill="none" xmlns="http://www.w3.org/2000/svg">
<path d="M14.6667 9.625C16.1884 9.625 17.4075 8.4525 17.4075 7C17.4075 5.5475 16.1884 4.375 14.6667 4.375C13.145 4.375 11.9167 5.5475 11.9167 7C11.9167 8.4525 13.145 9.625 14.6667 9.625ZM7.33335 9.625C8.85502 9.625 10.0742 8.4525 10.0742 7C10.0742 5.5475 8.85502 4.375 7.33335 4.375C5.81169 4.375 4.58335 5.5475 4.58335 7C4.58335 8.4525 5.81169 9.625 7.33335 9.625ZM7.33335 11.375C5.19752 11.375 0.916687 12.3988 0.916687 14.4375V16.625H13.75V14.4375C13.75 12.3988 9.46919 11.375 7.33335 11.375ZM14.6667 11.375C14.4009 11.375 14.0984 11.3925 13.7775 11.4188C14.8409 12.1537 15.5834 13.1425 15.5834 14.4375V16.625H21.0834V14.4375C21.0834 12.3988 16.8025 11.375 14.6667 11.375Z" fill="black"/>
</svg>
